<svg xmlns="http://www.w3.org/2000/svg" viewBox="0 0 512 512">
  <rect width="512" height="512" rx="96" fill="#127c56"/>
  <path d="M256 94c-89 0-162 73-162 162s73 162 162 162 162-73 162-162S345 94 256 94zm0 40c67 0 122 55 122 122s-55 122-122 122-122-55-122-122 55-122 122-122z" fill="#def7ea"/>
  <path d="M256 164c-51 0-92 41-92 92s41 92 92 92 92-41 92-92-41-92-92-92zm42 88-50 56c-4 5-12 5-17 1l-29-25c-5-4-5-11-1-16 4-5 11-5 16-1l20 17 42-46c4-5 12-5 17-1 5 4 5 11 2 15z" fill="#def7ea"/>
</svg>
